<svg xmlns="http://www.w3.org/2000/svg" viewBox="0 0 1400 950" role="img" aria-labelledby="title desc">
  <title id="title">Heating repair procedure</title>
  <desc id="desc">Illustration of furnace heating repair with technician, warm airflow, and equipment panel.</desc>
  <defs><linearGradient id="bg" x1="0" y1="0" x2="1" y2="1"><stop offset="0" stop-color="#fff7ed"/><stop offset="1" stop-color="#7f1d1d"/></linearGradient><filter id="s"><feDropShadow dx="0" dy="18" stdDeviation="18" flood-opacity="0.25"/></filter></defs>
  <rect width="1400" height="950" fill="url(#bg)"/>
  <g opacity="0.35" stroke="#fed7aa" stroke-width="18" fill="none" stroke-linecap="round"><path d="M1180 170c-110 70-170 150-175 250"/><path d="M1260 250c-90 55-135 120-140 205"/><path d="M190 210c90 35 150 95 180 180"/></g>
  <g filter="url(#s)">
    <rect x="650" y="245" width="445" height="515" rx="36" fill="#f8fafc"/>
    <rect x="710" y="315" width="325" height="135" rx="22" fill="#1f2937"/>
    <rect x="710" y="490" width="325" height="190" rx="22" fill="#cbd5e1"/>
    <circle cx="805" cy="580" r="48" fill="#dc2626"/><circle cx="925" cy="580" r="48" fill="#f97316"/>
    <rect x="745" y="705" width="255" height="28" rx="14" fill="#94a3b8"/>
  </g>
  <g filter="url(#s)">
    <circle cx="420" cy="320" r="58" fill="#fff7ed"/>
    <rect x="360" y="380" width="130" height="210" rx="42" fill="#1e3a8a"/>
    <rect x="330" y="570" width="190" height="48" rx="24" fill="#0f172a"/>
    <path d="M500 420c65 10 115 45 150 105" stroke="#f8fafc" stroke-width="24" stroke-linecap="round" fill="none"/>
    <path d="M435 620v145M365 620v145" stroke="#111827" stroke-width="44" stroke-linecap="round"/>
  </g>
  <text x="70" y="115" font-family="Arial, sans-serif" font-size="54" font-weight="800" fill="#7f1d1d">Heating Repair</text>
  <text x="70" y="175" font-family="Arial, sans-serif" font-size="28" font-weight="700" fill="#991b1b">Furnace diagnostics, safety checks, and warm air restoration</text>
</svg>