<svg xmlns="http://www.w3.org/2000/svg" viewBox="0 0 1400 950" role="img" aria-labelledby="title desc">
  <title id="title">HVAC team and service vehicles</title>
  <desc id="desc">Illustration of HVAC technicians with service equipment and branded service feel.</desc>
  <defs><linearGradient id="bg" x1="0" y1="0" x2="1" y2="1"><stop offset="0" stop-color="#fff7ed"/><stop offset="0.55" stop-color="#dbeafe"/><stop offset="1" stop-color="#0f172a"/></linearGradient><filter id="s"><feDropShadow dx="0" dy="18" stdDeviation="18" flood-opacity="0.22"/></filter></defs>
  <rect width="1400" height="950" fill="url(#bg)"/>
  <g filter="url(#s)">
    <rect x="170" y="520" width="750" height="210" rx="42" fill="#ffffff"/>
    <rect x="250" y="450" width="420" height="120" rx="35" fill="#1e3a8a"/>
    <circle cx="330" cy="750" r="62" fill="#0f172a"/><circle cx="760" cy="750" r="62" fill="#0f172a"/>
    <text x="285" y="525" fill="#fff" font-family="Arial, sans-serif" font-size="34" font-weight="800">Terrell AC</text>
  </g>
  <g filter="url(#s)">
    <circle cx="1010" cy="360" r="58" fill="#fff7ed"/><rect x="955" y="420" width="120" height="210" rx="42" fill="#ea580c"/><path d="M955 470c-62 10-110 45-145 105" stroke="#f8fafc" stroke-width="22" stroke-linecap="round" fill="none"/>
    <circle cx="1185" cy="380" r="58" fill="#fff7ed"/><rect x="1130" y="440" width="120" height="190" rx="42" fill="#1e3a8a"/><path d="M1130 485c-58 15-105 52-135 112" stroke="#f8fafc" stroke-width="22" stroke-linecap="round" fill="none"/>
  </g>
  <text x="70" y="115" font-family="Arial, sans-serif" font-size="54" font-weight="800" fill="#0f172a">Local HVAC Team</text>
  <text x="70" y="175" font-family="Arial, sans-serif" font-size="28" font-weight="700" fill="#1e3a8a">Clean workmanship, honest diagnostics, and responsive service</text>
</svg>