<svg xmlns="http://www.w3.org/2000/svg" viewBox="0 0 1400 950" role="img" aria-labelledby="title desc">
  <title id="title">AC repair procedure</title>
  <desc id="desc">Illustration of a technician servicing an outdoor air conditioning condenser with tools and cool airflow.</desc>
  <defs><linearGradient id="bg" x1="0" y1="0" x2="1" y2="1"><stop offset="0" stop-color="#dbeafe"/><stop offset="1" stop-color="#0f172a"/></linearGradient><filter id="s"><feDropShadow dx="0" dy="18" stdDeviation="18" flood-opacity="0.25"/></filter></defs>
  <rect width="1400" height="950" fill="url(#bg)"/>
  <rect x="70" y="660" width="1260" height="170" rx="85" fill="#0f172a" opacity="0.25"/>
  <g filter="url(#s)">
    <rect x="640" y="350" width="540" height="340" rx="38" fill="#f8fafc"/>
    <rect x="690" y="410" width="440" height="180" rx="26" fill="#1e293b"/>
    <circle cx="910" cy="500" r="78" fill="#020617"/>
    <path d="M910 435v130M845 500h130M864 454l92 92M956 454l-92 92" stroke="#60a5fa" stroke-width="16" stroke-linecap="round"/>
    <rect x="700" y="615" width="420" height="28" rx="14" fill="#94a3b8"/>
  </g>
  <g filter="url(#s)">
    <circle cx="420" cy="300" r="60" fill="#fff7ed"/>
    <rect x="360" y="360" width="130" height="220" rx="44" fill="#ea580c"/>
    <rect x="330" y="560" width="190" height="48" rx="24" fill="#0f172a"/>
    <path d="M500 410c80 20 130 65 160 130" stroke="#f8fafc" stroke-width="24" stroke-linecap="round" fill="none"/>
    <path d="M435 610v150M365 610v150" stroke="#111827" stroke-width="44" stroke-linecap="round"/>
  </g>
  <g opacity="0.55" stroke="#eff6ff" stroke-width="18" fill="none" stroke-linecap="round"><path d="M180 210c120-80 260-95 390-38"/><path d="M170 290c100-56 220-66 330-24"/><path d="M1080 190c100 42 175 110 230 204"/></g>
  <text x="70" y="115" font-family="Arial, sans-serif" font-size="54" font-weight="800" fill="#0f172a">AC Repair</text>
  <text x="70" y="175" font-family="Arial, sans-serif" font-size="28" font-weight="700" fill="#1e3a8a">Outdoor condenser diagnostics and repair</text>
</svg>