<svg xmlns="http://www.w3.org/2000/svg" viewBox="0 0 1400 950" role="img" aria-labelledby="title desc">
  <title id="title">Ductwork and ventilation service</title>
  <desc id="desc">Illustration of ductwork, vents, airflow arrows, and HVAC ventilation improvements.</desc>
  <defs><linearGradient id="bg" x1="0" y1="0" x2="1" y2="1"><stop offset="0" stop-color="#f1f5f9"/><stop offset="1" stop-color="#1e293b"/></linearGradient><filter id="s"><feDropShadow dx="0" dy="18" stdDeviation="18" flood-opacity="0.24"/></filter></defs>
  <rect width="1400" height="950" fill="url(#bg)"/>
  <g filter="url(#s)" fill="#e2e8f0">
    <rect x="120" y="250" width="1160" height="130" rx="65"/>
    <rect x="320" y="380" width="120" height="330" rx="30"/>
    <rect x="650" y="380" width="120" height="330" rx="30"/>
    <rect x="980" y="380" width="120" height="330" rx="30"/>
    <rect x="230" y="680" width="300" height="100" rx="35"/>
    <rect x="560" y="680" width="300" height="100" rx="35"/>
    <rect x="890" y="680" width="300" height="100" rx="35"/>
  </g>
  <g stroke="#38bdf8" stroke-width="22" stroke-linecap="round" fill="none" opacity="0.75"><path d="M210 160c130-80 270-85 420-10"/><path d="M760 150c150-75 300-60 440 45"/><path d="M205 835c100 38 210 36 330-10"/><path d="M845 835c120 42 240 30 360-38"/></g>
  <text x="70" y="115" font-family="Arial, sans-serif" font-size="54" font-weight="800" fill="#0f172a">Ductwork &amp; Ventilation</text>
  <text x="70" y="175" font-family="Arial, sans-serif" font-size="28" font-weight="700" fill="#334155">Airflow improvements, duct repairs, and comfort balancing</text>
</svg>