<svg xmlns="http://www.w3.org/2000/svg" viewBox="0 0 1400 950" role="img" aria-labelledby="title desc">
  <title id="title">HVAC maintenance</title>
  <desc id="desc">Illustration of preventive HVAC maintenance with gauges, tools, and system checklist.</desc>
  <defs><linearGradient id="bg" x1="0" y1="0" x2="1" y2="1"><stop offset="0" stop-color="#f8fafc"/><stop offset="1" stop-color="#334155"/></linearGradient><filter id="s"><feDropShadow dx="0" dy="18" stdDeviation="18" flood-opacity="0.22"/></filter></defs>
  <rect width="1400" height="950" fill="url(#bg)"/>
  <g filter="url(#s)">
    <rect x="170" y="245" width="470" height="560" rx="40" fill="#ffffff"/>
    <rect x="225" y="315" width="360" height="70" rx="20" fill="#0f172a"/>
    <path d="M245 465h300M245 545h300M245 625h210" stroke="#94a3b8" stroke-width="28" stroke-linecap="round"/>
    <path d="M260 465l35 35 70-85M260 545l35 35 70-85" stroke="#16a34a" stroke-width="18" stroke-linecap="round" stroke-linejoin="round" fill="none"/>
  </g>
  <g filter="url(#s)">
    <rect x="760" y="370" width="430" height="310" rx="36" fill="#f8fafc"/>
    <rect x="810" y="430" width="330" height="150" rx="26" fill="#1e293b"/>
    <circle cx="915" cy="505" r="48" fill="#1d4ed8"/><circle cx="1035" cy="505" r="48" fill="#dc2626"/>
    <path d="M840 620h270" stroke="#94a3b8" stroke-width="24" stroke-linecap="round"/>
  </g>
  <g stroke="#0f172a" stroke-width="22" stroke-linecap="round"><path d="M720 710l-110 110"/><path d="M610 710l110 110"/></g>
  <text x="70" y="115" font-family="Arial, sans-serif" font-size="54" font-weight="800" fill="#0f172a">Preventive Maintenance</text>
  <text x="70" y="175" font-family="Arial, sans-serif" font-size="28" font-weight="700" fill="#334155">Tune-ups, inspections, filters, and performance checks</text>
</svg>