<svg xmlns="http://www.w3.org/2000/svg" viewBox="0 0 1400 950" role="img" aria-labelledby="title desc">
  <title id="title">Commercial HVAC rooftop equipment</title>
  <desc id="desc">Illustration of commercial rooftop HVAC equipment and service access.</desc>
  <defs><linearGradient id="bg" x1="0" y1="0" x2="1" y2="1"><stop offset="0" stop-color="#eff6ff"/><stop offset="1" stop-color="#1e3a8a"/></linearGradient><filter id="s"><feDropShadow dx="0" dy="18" stdDeviation="18" flood-opacity="0.25"/></filter></defs>
  <rect width="1400" height="950" fill="url(#bg)"/>
  <rect x="90" y="650" width="1220" height="180" rx="18" fill="#334155"/>
  <g filter="url(#s)">
    <rect x="220" y="430" width="350" height="230" rx="30" fill="#f8fafc"/>
    <rect x="270" y="485" width="250" height="90" rx="20" fill="#0f172a"/>
    <circle cx="335" cy="530" r="35" fill="#60a5fa"/><circle cx="455" cy="530" r="35" fill="#60a5fa"/>
    <path d="M275 610h240" stroke="#94a3b8" stroke-width="22" stroke-linecap="round"/>
  </g>
  <g filter="url(#s)">
    <rect x="720" y="360" width="470" height="300" rx="34" fill="#f8fafc"/>
    <rect x="780" y="425" width="350" height="130" rx="22" fill="#1e293b"/>
    <circle cx="875" cy="490" r="45" fill="#38bdf8"/><circle cx="1035" cy="490" r="45" fill="#38bdf8"/>
    <path d="M805 600h300" stroke="#94a3b8" stroke-width="24" stroke-linecap="round"/>
  </g>
  <g opacity="0.38" fill="#fff"><rect x="100" y="260" width="100" height="300" rx="12"/><rect x="1130" y="210" width="130" height="360" rx="12"/><rect x="80" y="310" width="1180" height="15"/></g>
  <text x="70" y="115" font-family="Arial, sans-serif" font-size="54" font-weight="800" fill="#0f172a">Commercial HVAC</text>
  <text x="70" y="175" font-family="Arial, sans-serif" font-size="28" font-weight="700" fill="#1e3a8a">Rooftop units, business comfort, and system replacements</text>
</svg>